<?xml version="1.0" encoding="UTF-8"?>
<!DOCTYPE svg PUBLIC "-//W3C//DTD SVG 1.1//EN" "http://www.w3.org/Graphics/SVG/1.1/DTD/svg11.dtd">
<!-- Creator: CorelDRAW X7 -->
<svg xmlns="http://www.w3.org/2000/svg" xml:space="preserve" width="50px" height="50px" version="1.1" style="shape-rendering:geometricPrecision; text-rendering:geometricPrecision; image-rendering:optimizeQuality; fill-rule:evenodd; clip-rule:evenodd"
viewBox="0 0 50 50"
 xmlns:xlink="http://www.w3.org/1999/xlink">
 <defs>
  <style type="text/css">
   <![CDATA[
    .str1 {stroke:#4D4D4D;stroke-width:0.499985}
    .str2 {stroke:#666666;stroke-width:0.499985}
    .str0 {stroke:#990099;stroke-width:0.499985}
    .fil1 {fill:#FDD1A1}
    .fil0 {fill:#4D4D4D}
    .fil2 {fill:#E6E6E6}
    .fil4 {fill:#FFCC99}
    .fil3 {fill:white}
   ]]>
  </style>
 </defs>
 <g id="Group">
  <metadata id="CorelCorpID_0Corel-Layer"/>
  <g id="Folder">
   <ellipse id="Shadow" class="fil0" cx="24" cy="41" rx="21" ry="3"/>
   <polygon id="Folder_x0020_Back" class="fil1 str0" points="6,8 11,8 12,6 19,6 21,8 41,8 41,41 6,41 "/>
   <polygon id="Page_x0020_2" class="fil2 str1" points="9,10 42,10 39,37 6,37 "/>
   <polygon id="Page_x0020_1" class="fil3 str2" points="11,13 44,13 39,39 6,39 "/>
   <path id="Folder_x0020_Face" class="fil4 str0" d="M14 16l34 0c-5,9 -6,17 -7,25 -12,0 -23,0 -35,0 2,-9 5,-19 8,-25z"/>
  </g>
 </g>
</svg>
