<svg xmlns="http://www.w3.org/2000/svg" xml:space="preserve" width="333px" height="150px" version="1.1" style="shape-rendering:geometricPrecision; text-rendering:geometricPrecision; image-rendering:optimizeQuality; fill-rule:evenodd; clip-rule:evenodd" viewBox="0 0 333 150" xmlns:xlink="http://www.w3.org/1999/xlink">
	<defs>
		<style type="text/css">
			<![CDATA[
				.fil2 {fill:#84716B}
				.fil0 {fill:#F5874F;fill-rule:nonzero}
				.fil1 {fill:#A8CF45;fill-rule:nonzero}
			]]>
		</style>
	</defs>
	<g id="Layer_x0020_1">
		<g id="_1082063279952">
			<path class="fil0" d="M27 106l0 -68 10 0 0 10c5,-7 12,-11 22,-11 4,0 8,1 11,2 4,2 6,3 8,6 2,2 3,5 3,8 1,3 1,6 1,12l0 41 -11 0 0 -41c0,-5 -1,-8 -2,-11 -1,-2 -2,-4 -5,-5 -2,-1 -5,-2 -8,-2 -4,0 -9,1 -12,5 -4,3 -6,9 -6,17l0 37 -11 0zm71 6l11 2c0,3 2,5 4,7 3,2 6,3 11,3 6,0 10,-1 13,-3 3,-2 5,-5 6,-9 0,-2 1,-7 0,-15 -5,6 -11,9 -18,9 -10,0 -17,-3 -22,-10 -5,-7 -8,-15 -8,-24 0,-6 1,-12 4,-18 2,-5 6,-10 10,-13 4,-3 10,-4 16,-4 8,0 14,3 20,10l0 -9 10 0 0 59c0,11 -1,18 -3,23 -2,4 -6,7 -10,10 -5,3 -11,4 -18,4 -8,0 -14,-2 -19,-6 -5,-3 -8,-9 -7,-16zm9 -41c0,9 2,16 5,20 4,4 8,6 14,6 5,0 9,-2 13,-6 4,-4 5,-11 5,-19 0,-9 -1,-15 -5,-19 -4,-4 -8,-7 -13,-7 -6,0 -10,3 -14,7 -3,4 -5,10 -5,18z"/>
			<path class="fil1" d="M224 26l0 -13 11 0 0 13 -11 0zm0 80l0 -68 11 0 0 68 -11 0zm25 -35c0,-13 3,-22 10,-28 6,-5 13,-7 21,-7 10,0 17,3 23,9 6,6 9,14 9,25 0,9 -1,16 -4,21 -2,5 -6,8 -11,11 -5,3 -11,4 -17,4 -9,0 -17,-3 -23,-9 -6,-6 -8,-15 -8,-26zm11 0c0,9 2,15 6,19 4,5 9,7 14,7 6,0 11,-2 15,-7 3,-4 5,-10 5,-19 0,-9 -2,-15 -5,-19 -4,-5 -9,-7 -15,-7 -5,0 -10,2 -14,7 -4,4 -6,10 -6,19z"/>
			<polygon class="fil2" points="168,64 211,64 211,74 168,74 "/>
		</g>
	</g>
</svg>