<?xml version="1.0" encoding="UTF-8"?>
<!DOCTYPE svg PUBLIC "-//W3C//DTD SVG 1.1//EN" "http://www.w3.org/Graphics/SVG/1.1/DTD/svg11.dtd">
<!-- Creator: CorelDRAW X7 -->
<svg xmlns="http://www.w3.org/2000/svg" xml:space="preserve" width="50px" height="50px" version="1.1" style="shape-rendering:geometricPrecision; text-rendering:geometricPrecision; image-rendering:optimizeQuality; fill-rule:evenodd; clip-rule:evenodd"
viewBox="0 0 50 50"
 xmlns:xlink="http://www.w3.org/1999/xlink">
 <defs>
  <style type="text/css">
   <![CDATA[
    .str1 {stroke:#373435;stroke-width:0.499985}
    .str0 {stroke:#333333;stroke-width:0.624993}
    .fil2 {fill:none}
    .fil0 {fill:#4D4D4D}
    .fil1 {fill:#FFFFCC}
   ]]>
  </style>
 </defs>
 <g id="Group">
  <metadata id="CorelCorpID_0Corel-Layer"/>
  <g id="_601173935136">
   <rect class="fil0" x="11" y="13" width="26.75" height="26.75"/>
   <rect class="fil1 str0" x="13" y="11" width="26.75" height="26.75"/>
   <line class="fil2 str1" x1="14" y1="22" x2="38" y2= "22" />
   <line class="fil2 str1" x1="14" y1="17" x2="38" y2= "17" />
   <line class="fil2 str1" x1="14" y1="27" x2="38" y2= "27" />
   <line class="fil2 str1" x1="14" y1="32" x2="38" y2= "32" />
   <line class="fil2 str1" x1="28" y1="12" x2="28" y2= "36" />
   <line class="fil2 str1" x1="33" y1="12" x2="33" y2= "36" />
   <line class="fil2 str1" x1="23" y1="12" x2="23" y2= "36" />
   <line class="fil2 str1" x1="18" y1="12" x2="18" y2= "36" />
   <line class="fil2 str1" x1="14" y1="19" x2="38" y2= "19" />
   <line class="fil2 str1" x1="14" y1="14" x2="38" y2= "14" />
   <line class="fil2 str1" x1="14" y1="24" x2="38" y2= "24" />
   <line class="fil2 str1" x1="14" y1="29" x2="38" y2= "29" />
   <line class="fil2 str1" x1="14" y1="34" x2="38" y2= "34" />
  </g>
 </g>
</svg>
